# xmcd
#
# Track frame offsets:
# 150
# 17737
# 30390
# 43310
# 55180
# 68521
# 82119
# 95912
# 111593
# 123859
# 137715
# 156065
# 169564
# 180039
# 194356
# 209774
# 225030
# 236711
# 253825
# 268107
#
# Disc length: 3744 seconds
#
#
# Revision: 0
# Processed by: cddbd v1.5.2PL0 Copyright (c) Steve Scherf et al.
# Submitted via: FreeRIP 2.96 
#
DISCID=130e9e14
DTITLE=Felipe e Falcão Boteco CD do DVD 2 - 
DYEAR=1900
DGENRE=
TTITLE0=O Amor Está no Ar
TTITLE1=Pirarucú
TTITLE2=Radinho de Pilha
TTITLE3=Dói
TTITLE4=Monzão no Pau
TTITLE5=Lambendo a Butija
TTITLE6=Batida de Mamão
TTITLE7=Alguém Te Viu Por Aí
TTITLE8=Chá de Sumisso
TTITLE9=Paixão Pra Mais de Mês
TTITLE10=Apaga Tudo e Vem Part. Esp. Edson e Bruno
TTITLE11=Seguindo Seus Passos
TTITLE12=Mulher à Meia
TTITLE13=Viola Minha Viola
TTITLE14=Você é Isso
TTITLE15=Experimenta
TTITLE16=Demorô
TTITLE17=Disque 190
TTITLE18=Sapeca o Trem
TTITLE19=Vanerão da Mulher Feia
EXTD=
EXTT0=
EXTT1=
EXTT2=
EXTT3=
EXTT4=
EXTT5=
EXTT6=
EXTT7=
EXTT8=
EXTT9=
EXTT10=
EXTT11=
EXTT12=
EXTT13=
EXTT14=
EXTT15=
EXTT16=
EXTT17=
EXTT18=
EXTT19=
PLAYORDER=
